<svg xmlns="http://www.w3.org/2000/svg" data-name="Layer 1" viewBox="0 0 512 512"><path fill="#00efd1" d="M491.87,70.53A33.081,33.081,0,0,1,460,103.66V408.34A33.12,33.12,0,1,1,425.91,445H85.98A33.05,33.05,0,1,1,52,408.34V103.66A33.118,33.118,0,1,1,85.98,67H425.91a33.074,33.074,0,0,1,65.96,3.53Z"/><rect width="310.11" height="279.66" x="100.97" y="116.17" fill="#00acea"/><path fill="#fedb41" d="M139.97 200.94a8 8 0 0 1-5.657-13.657l39.25-39.25a8 8 0 0 1 11.314 11.314l-39.25 39.25A7.974 7.974 0 0 1 139.97 200.94zM146.85 235.37a8 8 0 0 1-5.657-13.657l66.8-66.8a8 8 0 0 1 11.314 11.314l-66.8 66.8A7.976 7.976 0 0 1 146.85 235.37z"/></svg>